<svg xmlns="http://www.w3.org/2000/svg" xml:space="preserve" width="793.70135" height="1122.52">
  <defs>
    <clipPath id="a" clipPathUnits="userSpaceOnUse">
      <path d="M0 841.89h595.276V0H0Z"/>
    </clipPath>
    <clipPath id="b" clipPathUnits="userSpaceOnUse">
      <path d="M0 841.89h595.276V0H0Z"/>
    </clipPath>
  </defs>
  <g clip-path="url(#a)" transform="matrix(1.3333333 0 0 -1.3333333 0 1122.52)">
    <path d="M0 0c1.725 8.772 6.137 14.513 12.723 17.401 4.778 2.095 9.688 3.64 14.562 5.295 14.433 4.902 28.345 11.517 41.177 21.925 6.714 5.444 12.551 12.071 17.701 19.722.853 1.266 1.723 2.513 2.711 3.647-3.68-10.624-9.002-19.826-15.901-27.662-10.559-11.994-22.674-19.151-36.487-21.374-6.409-1.031-12.792-2.633-19.181-4.037C9.829 13.275 3.48 9.401 0 0" style="fill:#373535;fill-opacity:1;fill-rule:nonzero;stroke:none" transform="translate(420.2646 390.974)"/>
    <path d="M0 0c-2.823-5.928-6.493-9.703-10.801-12.625-7.906-5.362-16.327-6.833-24.892-7.41-8.637-.582-17.276-1.197-25.912-2.002-2.246-.209-4.488-1.184-7.121-1.914 3.712 4.656 7.812 7.505 12.406 8.565 6.217 1.435 12.489 2.309 18.738 3.397C-25.713-9.926-14.05-6.473-2.665-1.098-1.946-.759-1.209-.495 0 0" style="fill:#373535;fill-opacity:1;fill-rule:nonzero;stroke:none" transform="translate(492.2568 418.8832)"/>
    <path d="M0 0c-.859-2.823-1.49-5.785-2.624-8.442-2.982-6.996-7.917-11.354-13.555-14.179-5.073-2.542-10.342-4.361-15.513-6.545-2.357-.995-4.769-1.864-7.017-3.203-5.48-3.265-9.003-8.561-10.158-16.056-.148-.951-.341-1.895-.521-2.841-.015-.086-.088-.159-.335-.585-.464 5.736.649 10.757 3.165 15.39 3.968 7.306 9.751 11.493 15.988 14.752 5.351 2.796 10.817 5.204 16.127 8.129C-8.937-10.547-3.888-6.562-.703.345-.469.23-.234.115 0 0" style="fill:#373535;fill-opacity:1;fill-rule:nonzero;stroke:none" transform="translate(468.292 440.9974)"/>
    <path d="M0 0c-11.522-7.987-22.116-2.806-32.836-1.328.013.304.024.607.036.911C-22.02-.279-11.239-.143 0 0" style="fill:#373535;fill-opacity:1;fill-rule:nonzero;stroke:none" transform="translate(463.875 395.7054)"/>
  </g>
  <text style="font-variant:normal;font-weight:400;font-stretch:normal;font-size:69.50589752px;font-family:Love;-inkscape-font-specification:Love-Regular;writing-mode:lr-tb;fill:#373535;fill-opacity:1;fill-rule:nonzero;stroke:none" transform="translate(195.07292846 540.30188122) scale(1.3333333)"><tspan x="0 44.205753 58.871498 82.01696 96.682709 142.00055 156.66631 203.72179 218.38754 260.99466 275.6604 317.15543" y="0">F I T R A S </tspan></text>
  <text style="font-variant:normal;font-weight:400;font-stretch:normal;font-size:26.07189941px;font-family:Love;-inkscape-font-specification:Love-Regular;writing-mode:lr-tb;fill:#373535;fill-opacity:1;fill-rule:nonzero;stroke:none" transform="translate(262.03386012 598.5728131) scale(1.3333333)"><tspan x="0 16.268866 32.094509 37.59568 53.238819 69.220894 77.981056 100.50717 116.48925 121.99042 137.97249 154.97137 177.4975 193.47957" y="0">by saima arman</tspan></text>
  <g clip-path="url(#b)" transform="matrix(1.3333333 0 0 -1.3333333 0 1122.52)">
    <path d="M0 0c-1.725 8.772-6.137 14.513-12.724 17.401-4.778 2.095-9.688 3.64-14.561 5.295-14.433 4.902-28.345 11.517-41.178 21.925-6.713 5.444-12.55 12.071-17.7 19.722-.853 1.266-1.723 2.513-2.712 3.647 3.68-10.624 9.002-19.826 15.901-27.662 10.56-11.994 22.675-19.151 36.488-21.374 6.408-1.031 12.792-2.633 19.181-4.037C-9.83 13.275-3.481 9.401 0 0" style="fill:#373535;fill-opacity:1;fill-rule:nonzero;stroke:none" transform="translate(183.1025 390.974)"/>
    <path d="M0 0c2.823-5.928 6.493-9.703 10.801-12.625 7.906-5.362 16.327-6.833 24.891-7.41 8.638-.582 17.276-1.197 25.913-2.002 2.246-.209 4.488-1.184 7.121-1.914-3.712 4.656-7.812 7.505-12.406 8.565-6.218 1.435-12.489 2.309-18.739 3.397C25.713-9.926 14.049-6.473 2.665-1.098 1.946-.759 1.208-.495 0 0" style="fill:#373535;fill-opacity:1;fill-rule:nonzero;stroke:none" transform="translate(111.1104 418.8832)"/>
    <path d="M0 0c.86-2.823 1.491-5.785 2.624-8.442 2.982-6.996 7.918-11.354 13.555-14.179 5.073-2.542 10.342-4.361 15.513-6.545 2.357-.995 4.769-1.864 7.017-3.203 5.48-3.265 9.003-8.561 10.159-16.056.146-.951.34-1.895.519-2.841.016-.086.088-.159.336-.585.464 5.736-.648 10.757-3.165 15.39-3.968 7.306-9.751 11.493-15.988 14.752-5.351 2.796-10.817 5.204-16.127 8.129C8.937-10.547 3.888-6.562.703.345.469.23.234.115 0 0" style="fill:#373535;fill-opacity:1;fill-rule:nonzero;stroke:none" transform="translate(135.0747 440.9974)"/>
    <path d="M0 0c11.523-7.987 22.116-2.806 32.835-1.328-.011.304-.023.607-.035.911C22.02-.279 11.239-.143 0 0" style="fill:#373535;fill-opacity:1;fill-rule:nonzero;stroke:none" transform="translate(139.4917 395.7054)"/>
  </g>
</svg>