<?xml version="1.0" encoding="utf-8"?>
<!-- Generator: Adobe Illustrator 23.0.3, SVG Export Plug-In . SVG Version: 6.00 Build 0)  -->
<svg version="1.1" id="Layer_1" xmlns="http://www.w3.org/2000/svg" xmlns:xlink="http://www.w3.org/1999/xlink" x="0px" y="0px"
	 viewBox="0 0 144 144" style="enable-background:new 0 0 144 144;" xml:space="preserve">
<style type="text/css">
	.st0{font-family:'Love-Regular';}
	.st1{font-size:23.0181px;}
	.st2{font-size:8.6341px;}
</style>
<g>
	<g>
		<path d="M111.27,89.05c0.57-2.91,2.03-4.81,4.21-5.76c1.58-0.69,3.21-1.21,4.82-1.75c4.78-1.62,9.39-3.81,13.64-7.26
			c2.22-1.8,4.16-4,5.86-6.53c0.28-0.42,0.57-0.83,0.9-1.21c-1.22,3.52-2.98,6.57-5.27,9.16c-3.5,3.97-7.51,6.34-12.08,7.08
			c-2.12,0.34-4.24,0.87-6.35,1.34C114.53,84.65,112.42,85.93,111.27,89.05z"/>
		<path d="M135.11,79.8c-0.94,1.96-2.15,3.21-3.58,4.18c-2.62,1.78-5.41,2.26-8.24,2.45c-2.86,0.19-5.72,0.4-8.58,0.66
			c-0.74,0.07-1.49,0.39-2.36,0.63c1.23-1.54,2.59-2.49,4.11-2.84c2.06-0.48,4.14-0.76,6.21-1.12c3.93-0.68,7.79-1.83,11.56-3.61
			C134.47,80.05,134.71,79.97,135.11,79.8z"/>
		<path d="M127.18,72.48c-0.28,0.93-0.49,1.92-0.87,2.8c-0.99,2.32-2.62,3.76-4.49,4.7c-1.68,0.84-3.42,1.44-5.14,2.17
			c-0.78,0.33-1.58,0.62-2.32,1.06c-1.81,1.08-2.98,2.83-3.36,5.32c-0.05,0.32-0.11,0.63-0.17,0.94c-0.01,0.03-0.03,0.05-0.11,0.19
			c-0.15-1.9,0.21-3.56,1.05-5.1c1.31-2.42,3.23-3.81,5.29-4.89c1.77-0.93,3.58-1.72,5.34-2.69c1.82-1,3.5-2.32,4.55-4.61
			C127.02,72.4,127.1,72.44,127.18,72.48z"/>
		<path d="M125.71,87.48c-3.82,2.65-7.32,0.93-10.87,0.44c0-0.1,0.01-0.2,0.01-0.3C118.42,87.57,121.99,87.53,125.71,87.48z"/>
	</g>
	<text transform="matrix(1 0 0 1 20.5448 73.9139)" class="st0 st1">F I T R A S </text>
	<g>
		<text transform="matrix(1 0 0 1 37.1737 88.388)" class="st0 st2">by saima arman</text>
	</g>
	<g>
		<path d="M32.73,89.05c-0.57-2.91-2.03-4.81-4.21-5.76c-1.58-0.69-3.21-1.21-4.82-1.75c-4.78-1.62-9.39-3.81-13.64-7.26
			c-2.22-1.8-4.16-4-5.86-6.53c-0.28-0.42-0.57-0.83-0.9-1.21c1.22,3.52,2.98,6.57,5.27,9.16c3.5,3.97,7.51,6.34,12.08,7.08
			c2.12,0.34,4.24,0.87,6.35,1.34C29.47,84.65,31.58,85.93,32.73,89.05z"/>
		<path d="M8.89,79.8c0.94,1.96,2.15,3.21,3.58,4.18c2.62,1.78,5.41,2.26,8.24,2.45c2.86,0.19,5.72,0.4,8.58,0.66
			c0.74,0.07,1.49,0.39,2.36,0.63c-1.23-1.54-2.59-2.49-4.11-2.84c-2.06-0.48-4.14-0.76-6.21-1.12c-3.93-0.68-7.79-1.83-11.56-3.61
			C9.53,80.05,9.29,79.97,8.89,79.8z"/>
		<path d="M16.82,72.48c0.28,0.93,0.49,1.92,0.87,2.8c0.99,2.32,2.62,3.76,4.49,4.7c1.68,0.84,3.42,1.44,5.14,2.17
			c0.78,0.33,1.58,0.62,2.32,1.06c1.81,1.08,2.98,2.83,3.36,5.32c0.05,0.32,0.11,0.63,0.17,0.94c0.01,0.03,0.03,0.05,0.11,0.19
			c0.15-1.9-0.21-3.56-1.05-5.1c-1.31-2.42-3.23-3.81-5.29-4.89c-1.77-0.93-3.58-1.72-5.34-2.69c-1.82-1-3.5-2.32-4.55-4.61
			C16.98,72.4,16.9,72.44,16.82,72.48z"/>
		<path d="M18.29,87.48c3.82,2.65,7.32,0.93,10.87,0.44c0-0.1-0.01-0.2-0.01-0.3C25.58,87.57,22.01,87.53,18.29,87.48z"/>
	</g>
</g>
</svg>
